{"accessors" : [{"bufferView" : 0, "byteOffset" : 0, "componentType" : 5123, "count" : 10080, "type" : "SCALAR", "max" : [8071], "min" : [0]}, {"bufferView" : 1, "byteOffset" : 0, "componentType" : 5126, "count" : 8072, "type" : "VEC3", "max" : [0.2571580111980438, -0.5610460042953491, 0.5572099685668945], "min" : [-0.3578050136566162, -1.2859920263290405, -0.3041200041770935], "name" : "POSITION"}, {"bufferView" : 1, "byteOffset" : 12, "componentType" : 5126, "count" : 8072, "type" : "VEC3", "max" : [0.9974580407142639, 0.9987189173698425, 0.9985061287879944], "min" : [-0.9916934967041016, -0.9984740018844604, -0.9995008111000061], "name" : "NORMAL"}], "asset" : {"generator" : "Aspose.3D 22.10", "version" : "2.0"}, "buffers" : [{"uri" : "data:application/octet-stream;base64,", "byteLength" : 262088}], "bufferViews" : [{"buffer" : 0, "byteOffset" : 0, "byteLength" : 20160, "target" : 34963}, {"buffer" : 0, "byteOffset" : 20164, "byteLength" : 241920, "byteStride" : 24, "target" : 34962}], "materials" : [{"name" : "monstrlow1_14", "pbrMetallicRoughness" : {"baseColorFactor" : [0.5, 0.5, 0.5, 1], "metallicFactor" : 0, "roughnessFactor" : 0}, "emissiveFactor" : [0, 0, 0], "alphaMode" : "OPAQUE", "doubleSided" : false}], "meshes" : [{"primitives" : [{"attributes" : {"POSITION" : 1, "NORMAL" : 2}, "indices" : 0, "material" : 0, "mode" : 4}], "name" : "monstrlow1_14"}], "nodes" : [{"mesh" : 0, "name" : "monstrlow1_14"}], "scene" : 0, "scenes" : [{"nodes" : [0]}]}